<svg xmlns="http://www.w3.org/2000/svg" version="1.1" xmlns:xlink="http://www.w3.org/1999/xlink" xmlns:svgjs="http://svgjs.dev/svgjs" viewBox="0 0 7.465750803154992 8.08599229427174"><g transform="matrix(1,0,0,1,0.6473706408353093,6.241621653436431)"><g><path d=" M 0.063 0.1140000000000001 Q 0.0945 0.11550000000000016 0.1455 0.11700000000000021 Q 0.1965 0.11850000000000005 0.246 0.11850000000000005 Q 0.3165 0.11850000000000005 0.381 0.11700000000000021 Q 0.4455 0.11550000000000016 0.47250000000000003 0.11550000000000016 Q 0.594 0.11550000000000016 0.67425 0.15000000000000013 Q 0.7545000000000001 0.1845000000000001 0.79425 0.24375000000000013 Q 0.834 0.30300000000000016 0.834 0.37650000000000017 Q 0.834 0.4215000000000001 0.8160000000000001 0.47250000000000014 Q 0.798 0.5235000000000002 0.75375 0.5685000000000001 Q 0.7095 0.6135000000000002 0.633 0.6427500000000002 Q 0.5565 0.6720000000000002 0.4395 0.6720000000000002 L 0.2955 0.6720000000000002 L 0.2955 0.6420000000000001 L 0.4245 0.6420000000000001 Q 0.531 0.6420000000000001 0.58725 0.6082500000000002 Q 0.6435 0.5745000000000001 0.6637500000000001 0.5182500000000001 Q 0.684 0.4620000000000002 0.684 0.3930000000000001 Q 0.684 0.2745000000000002 0.62775 0.20925000000000016 Q 0.5715 0.14400000000000013 0.435 0.14400000000000013 Q 0.366 0.14400000000000013 0.34500000000000003 0.1695000000000002 Q 0.324 0.19500000000000017 0.324 0.27300000000000013 L 0.324 1.0170000000000001 Q 0.324 1.0710000000000002 0.333 1.098 Q 0.342 1.1250000000000002 0.36825 1.1340000000000001 Q 0.3945 1.1430000000000002 0.4455 1.1460000000000001 L 0.4455 1.1760000000000002 Q 0.41100000000000003 1.1730000000000003 0.35925 1.1722500000000002 Q 0.3075 1.1715000000000002 0.255 1.1715000000000002 Q 0.1965 1.1715000000000002 0.1455 1.1722500000000002 Q 0.0945 1.1730000000000003 0.063 1.1760000000000002 L 0.063 1.1460000000000001 Q 0.114 1.1430000000000002 0.14025 1.1340000000000001 Q 0.1665 1.1250000000000002 0.17550000000000002 1.098 Q 0.1845 1.0710000000000002 0.1845 1.0170000000000001 L 0.1845 0.27300000000000013 Q 0.1845 0.21750000000000014 0.17550000000000002 0.19125000000000014 Q 0.1665 0.16500000000000004 0.14025 0.1552500000000001 Q 0.114 0.14550000000000018 0.063 0.14400000000000013 L 0.063 0.1140000000000001 M 0.3015 0.6465000000000002 Q 0.3825 0.6495000000000002 0.429 0.6532500000000001 Q 0.47550000000000003 0.6570000000000001 0.50475 0.6600000000000001 Q 0.534 0.6630000000000001 0.561 0.6675000000000001 Q 0.6615 0.6840000000000002 0.70575 0.7282500000000001 Q 0.75 0.7725000000000002 0.771 0.8655000000000002 L 0.8085 1.0185000000000002 Q 0.8235 1.0845000000000002 0.83925 1.1137500000000002 Q 0.855 1.1430000000000002 0.888 1.1415000000000002 Q 0.9135 1.1400000000000001 0.93075 1.1250000000000002 Q 0.9480000000000001 1.11 0.9675 1.0845000000000002 L 0.99 1.1010000000000002 Q 0.9585 1.1475000000000002 0.9247500000000001 1.1722500000000002 Q 0.891 1.197 0.8295 1.197 Q 0.774 1.197 0.732 1.1640000000000001 Q 0.6900000000000001 1.1310000000000002 0.669 1.0350000000000001 L 0.636 0.8850000000000002 Q 0.6225 0.8205000000000002 0.6052500000000001 0.7732500000000002 Q 0.588 0.7260000000000002 0.55725 0.6990000000000001 Q 0.5265 0.6720000000000002 0.4665 0.6720000000000002 L 0.3045 0.6720000000000002 L 0.3015 0.6465000000000002 M 1.243515380859375 1.1865 Q 1.182015380859375 1.1865 1.137015380859375 1.1632500000000001 Q 1.092015380859375 1.1400000000000001 1.0687653808593751 1.098 Q 1.0455153808593751 1.056 1.0455153808593751 1.0005000000000002 Q 1.0455153808593751 0.9345000000000001 1.076265380859375 0.8925000000000001 Q 1.107015380859375 0.8505000000000001 1.155015380859375 0.8250000000000002 Q 1.203015380859375 0.7995000000000001 1.2562653808593751 0.7822500000000001 Q 1.309515380859375 0.7650000000000001 1.357515380859375 0.7492500000000002 Q 1.405515380859375 0.7335000000000002 1.436265380859375 0.7125000000000001 Q 1.467015380859375 0.6915000000000002 1.467015380859375 0.6570000000000001 L 1.467015380859375 0.5640000000000002 Q 1.467015380859375 0.5010000000000001 1.448265380859375 0.4680000000000002 Q 1.429515380859375 0.43500000000000016 1.3980153808593752 0.4237500000000002 Q 1.366515380859375 0.4125000000000001 1.3275153808593751 0.4125000000000001 Q 1.290015380859375 0.4125000000000001 1.247265380859375 0.42300000000000015 Q 1.204515380859375 0.4335000000000001 1.179015380859375 0.46650000000000014 Q 1.207515380859375 0.47250000000000014 1.228515380859375 0.49650000000000016 Q 1.249515380859375 0.5205000000000002 1.249515380859375 0.5580000000000002 Q 1.249515380859375 0.5955000000000001 1.225515380859375 0.6172500000000002 Q 1.201515380859375 0.6390000000000001 1.164015380859375 0.6390000000000001 Q 1.120515380859375 0.6390000000000001 1.100265380859375 0.6112500000000002 Q 1.080015380859375 0.5835000000000001 1.080015380859375 0.5490000000000002 Q 1.080015380859375 0.5100000000000001 1.099515380859375 0.4860000000000001 Q 1.119015380859375 0.4620000000000002 1.149015380859375 0.44100000000000017 Q 1.183515380859375 0.41700000000000015 1.238265380859375 0.39975000000000016 Q 1.293015380859375 0.3825000000000002 1.3620153808593751 0.3825000000000002 Q 1.423515380859375 0.3825000000000002 1.467015380859375 0.39675000000000016 Q 1.510515380859375 0.41100000000000014 1.5390153808593752 0.43800000000000017 Q 1.5780153808593749 0.4740000000000001 1.5900153808593749 0.5257500000000002 Q 1.602015380859375 0.5775000000000001 1.602015380859375 0.6495000000000002 L 1.602015380859375 1.0665000000000002 Q 1.602015380859375 1.104 1.6132653808593749 1.1205 Q 1.624515380859375 1.1370000000000002 1.6485153808593749 1.1370000000000002 Q 1.665015380859375 1.1370000000000002 1.6800153808593752 1.1295000000000002 Q 1.6950153808593749 1.122 1.716015380859375 1.1055000000000001 L 1.732515380859375 1.1310000000000002 Q 1.701015380859375 1.1550000000000002 1.672515380859375 1.1707500000000002 Q 1.6440153808593752 1.1865 1.596015380859375 1.1865 Q 1.552515380859375 1.1865 1.524015380859375 1.1715000000000002 Q 1.495515380859375 1.1565 1.481265380859375 1.12725 Q 1.467015380859375 1.098 1.467015380859375 1.0530000000000002 Q 1.426515380859375 1.1205 1.370265380859375 1.1535000000000002 Q 1.314015380859375 1.1865 1.243515380859375 1.1865 M 1.297515380859375 1.1265 Q 1.347015380859375 1.1265 1.389765380859375 1.098 Q 1.4325153808593751 1.0695000000000001 1.467015380859375 1.0125000000000002 L 1.467015380859375 0.7185000000000001 Q 1.449015380859375 0.7440000000000002 1.414515380859375 0.7612500000000002 Q 1.380015380859375 0.7785000000000002 1.339515380859375 0.7957500000000002 Q 1.299015380859375 0.8130000000000002 1.262265380859375 0.8362500000000002 Q 1.225515380859375 0.8595000000000002 1.201515380859375 0.8970000000000001 Q 1.177515380859375 0.9345000000000001 1.177515380859375 0.9945000000000002 Q 1.177515380859375 1.0545000000000002 1.2097653808593751 1.0905000000000002 Q 1.242015380859375 1.1265 1.297515380859375 1.1265 M 2.47048681640625 0.4035000000000002 L 2.47048681640625 0.4335000000000001 Q 2.44198681640625 0.4365000000000001 2.41798681640625 0.4590000000000002 Q 2.39398681640625 0.48150000000000015 2.37298681640625 0.5385000000000001 L 2.12698681640625 1.1835000000000002 Q 2.12098681640625 1.1835000000000002 2.11498681640625 1.1835000000000002 Q 2.10898681640625 1.1835000000000002 2.10148681640625 1.1835000000000002 L 1.82548681640625 0.5190000000000001 Q 1.80148681640625 0.46050000000000013 1.77823681640625 0.4477500000000001 Q 1.75498681640625 0.43500000000000016 1.7384868164062501 0.43500000000000016 L 1.7384868164062501 0.4035000000000002 Q 1.76848681640625 0.40500000000000014 1.80073681640625 0.4072500000000001 Q 1.83298681640625 0.4095000000000001 1.87048681640625 0.4095000000000001 Q 1.91698681640625 0.4095000000000001 1.96873681640625 0.40800000000000014 Q 2.02048681640625 0.4065000000000002 2.06548681640625 0.4035000000000002 L 2.06548681640625 0.43500000000000016 Q 2.02798681640625 0.43500000000000016 1.99873681640625 0.44025000000000014 Q 1.96948681640625 0.4455000000000001 1.9612368164062501 0.46950000000000014 Q 1.95298681640625 0.49350000000000016 1.97548681640625 0.5520000000000002 L 2.1629868164062502 1.0155 L 2.15398681640625 1.0230000000000001 L 2.32498681640625 0.5745000000000001 Q 2.34448681640625 0.5250000000000001 2.34073681640625 0.49575000000000014 Q 2.33698681640625 0.46650000000000014 2.31073681640625 0.4515000000000001 Q 2.28448681640625 0.4365000000000001 2.23048681640625 0.4335000000000001 L 2.23048681640625 0.4035000000000002 Q 2.2574868164062503 0.40500000000000014 2.27698681640625 0.40575000000000017 Q 2.29648681640625 0.4065000000000002 2.31523681640625 0.4072500000000001 Q 2.33398681640625 0.40800000000000014 2.35648681640625 0.40800000000000014 Q 2.39098681640625 0.40800000000000014 2.41873681640625 0.4065000000000002 Q 2.44648681640625 0.40500000000000014 2.47048681640625 0.4035000000000002 M 2.70450732421875 0.028500000000000192 Q 2.7435073242187498 0.028500000000000192 2.77200732421875 0.05700000000000016 Q 2.80050732421875 0.08550000000000013 2.80050732421875 0.12450000000000006 Q 2.80050732421875 0.1635000000000002 2.77200732421875 0.19200000000000017 Q 2.7435073242187498 0.22050000000000014 2.70450732421875 0.22050000000000014 Q 2.66550732421875 0.22050000000000014 2.6370073242187497 0.19200000000000017 Q 2.60850732421875 0.1635000000000002 2.60850732421875 0.12450000000000006 Q 2.60850732421875 0.08550000000000013 2.6370073242187497 0.05700000000000016 Q 2.66550732421875 0.028500000000000192 2.70450732421875 0.028500000000000192 M 2.78250732421875 0.3870000000000001 L 2.78250732421875 1.0365000000000002 Q 2.78250732421875 1.0995000000000001 2.80875732421875 1.122 Q 2.83500732421875 1.1445 2.89650732421875 1.1445 L 2.89650732421875 1.1760000000000002 Q 2.87100732421875 1.1745 2.81925732421875 1.1722500000000002 Q 2.76750732421875 1.1700000000000002 2.71500732421875 1.1700000000000002 Q 2.66400732421875 1.1700000000000002 2.61150732421875 1.1722500000000002 Q 2.55900732421875 1.1745 2.53350732421875 1.1760000000000002 L 2.53350732421875 1.1445 Q 2.59500732421875 1.1445 2.62125732421875 1.122 Q 2.64750732421875 1.0995000000000001 2.64750732421875 1.0365000000000002 L 2.64750732421875 0.5670000000000002 Q 2.64750732421875 0.49950000000000017 2.62350732421875 0.46725000000000017 Q 2.59950732421875 0.43500000000000016 2.53350732421875 0.43500000000000016 L 2.53350732421875 0.4035000000000002 Q 2.58150732421875 0.40800000000000014 2.6265073242187498 0.40800000000000014 Q 2.67000732421875 0.40800000000000014 2.70975732421875 0.40275000000000016 Q 2.74950732421875 0.3975000000000002 2.78250732421875 0.3870000000000001 M 3.492052001953125 0.3825000000000002 Q 3.5490520019531253 0.3825000000000002 3.587302001953125 0.3975000000000002 Q 3.625552001953125 0.4125000000000001 3.651052001953125 0.4395000000000001 Q 3.679552001953125 0.46950000000000014 3.691552001953125 0.5145000000000002 Q 3.703552001953125 0.5595000000000001 3.703552001953125 0.6360000000000001 L 3.703552001953125 1.0365000000000002 Q 3.703552001953125 1.0995000000000001 3.729802001953125 1.122 Q 3.756052001953125 1.1445 3.817552001953125 1.1445 L 3.817552001953125 1.1760000000000002 Q 3.792052001953125 1.1745 3.739552001953125 1.1722500000000002 Q 3.687052001953125 1.1700000000000002 3.637552001953125 1.1700000000000002 Q 3.588052001953125 1.1700000000000002 3.540802001953125 1.1722500000000002 Q 3.493552001953125 1.1745 3.469552001953125 1.1760000000000002 L 3.469552001953125 1.1445 Q 3.5235520019531252 1.1445 3.546052001953125 1.122 Q 3.568552001953125 1.0995000000000001 3.568552001953125 1.0365000000000002 L 3.568552001953125 0.6030000000000001 Q 3.568552001953125 0.5565000000000001 3.561052001953125 0.5175000000000002 Q 3.553552001953125 0.47850000000000015 3.527302001953125 0.4545000000000001 Q 3.5010520019531253 0.4305000000000001 3.447052001953125 0.4305000000000001 Q 3.3840520019531253 0.4305000000000001 3.3368020019531253 0.46650000000000014 Q 3.2895520019531252 0.5025000000000002 3.263302001953125 0.5647500000000002 Q 3.237052001953125 0.6270000000000001 3.237052001953125 0.7035000000000001 L 3.237052001953125 1.0365000000000002 Q 3.237052001953125 1.0995000000000001 3.259552001953125 1.122 Q 3.282052001953125 1.1445 3.3360520019531252 1.1445 L 3.3360520019531252 1.1760000000000002 Q 3.312052001953125 1.1745 3.264802001953125 1.1722500000000002 Q 3.217552001953125 1.1700000000000002 3.168052001953125 1.1700000000000002 Q 3.118552001953125 1.1700000000000002 3.066052001953125 1.1722500000000002 Q 3.013552001953125 1.1745 2.988052001953125 1.1760000000000002 L 2.988052001953125 1.1445 Q 3.049552001953125 1.1445 3.075802001953125 1.122 Q 3.1020520019531252 1.0995000000000001 3.1020520019531252 1.0365000000000002 L 3.1020520019531252 0.5670000000000002 Q 3.1020520019531252 0.49950000000000017 3.0780520019531252 0.46725000000000017 Q 3.054052001953125 0.43500000000000016 2.988052001953125 0.43500000000000016 L 2.988052001953125 0.4035000000000002 Q 3.036052001953125 0.40800000000000014 3.081052001953125 0.40800000000000014 Q 3.124552001953125 0.40800000000000014 3.164302001953125 0.40275000000000016 Q 3.204052001953125 0.3975000000000002 3.237052001953125 0.3870000000000001 L 3.237052001953125 0.5640000000000002 Q 3.276052001953125 0.4620000000000002 3.345802001953125 0.4222500000000001 Q 3.415552001953125 0.3825000000000002 3.492052001953125 0.3825000000000002 M 4.581029296875 2.220446049250313e-16 L 4.581029296875 1.0125000000000002 Q 4.581029296875 1.08 4.605779296875 1.1122500000000002 Q 4.630529296875 1.1445 4.695029296875 1.1445 L 4.695029296875 1.1760000000000002 Q 4.648529296875 1.1715000000000002 4.602029296875 1.1715000000000002 Q 4.558529296875 1.1715000000000002 4.5187792968750005 1.1760000000000002 Q 4.479029296875 1.1805 4.446029296875 1.1925000000000001 L 4.446029296875 0.18000000000000016 Q 4.446029296875 0.11250000000000004 4.422029296875 0.08025000000000015 Q 4.398029296875 0.04800000000000004 4.3320292968750005 0.04800000000000004 L 4.3320292968750005 0.01650000000000018 Q 4.3800292968750005 0.02100000000000013 4.4250292968750005 0.02100000000000013 Q 4.468529296875 0.02100000000000013 4.508279296875 0.015750000000000153 Q 4.548029296875001 0.010500000000000176 4.581029296875 2.220446049250313e-16 M 4.266029296875001 0.3825000000000002 Q 4.3320292968750005 0.3825000000000002 4.389779296875 0.41400000000000015 Q 4.447529296875 0.4455000000000001 4.467029296875 0.5220000000000001 L 4.447529296875 0.5370000000000001 Q 4.4265292968750005 0.4740000000000001 4.382279296875 0.4455000000000001 Q 4.338029296875 0.41700000000000015 4.278029296875 0.41700000000000015 Q 4.189529296875 0.41700000000000015 4.130279296875 0.5085000000000002 Q 4.071029296875 0.6000000000000001 4.072529296875 0.7905000000000002 Q 4.072529296875 0.9120000000000001 4.095779296875 0.9922500000000002 Q 4.119029296875 1.0725000000000002 4.164779296875 1.1122500000000002 Q 4.210529296875 1.1520000000000001 4.276529296875 1.1520000000000001 Q 4.339529296875 1.1520000000000001 4.390529296875 1.098 Q 4.441529296875 1.044 4.452029296875001 0.9390000000000002 L 4.470029296875 0.9600000000000002 Q 4.458029296875 1.074 4.397279296875 1.1355000000000002 Q 4.336529296875 1.197 4.233029296875 1.197 Q 4.140029296875 1.197 4.070279296875 1.1520000000000001 Q 4.000529296875 1.1070000000000002 3.9637792968750003 1.0170000000000001 Q 3.9270292968750002 0.9270000000000002 3.9270292968750002 0.7905000000000002 Q 3.9270292968750002 0.6540000000000001 3.9742792968750003 0.5632500000000001 Q 4.021529296875 0.47250000000000014 4.0987792968750005 0.4275000000000001 Q 4.176029296875 0.3825000000000002 4.266029296875001 0.3825000000000002 M 5.251519775390625 0.3825000000000002 Q 5.292019775390624 0.3825000000000002 5.322769775390625 0.39900000000000013 Q 5.353519775390625 0.4155000000000001 5.370769775390625 0.4417500000000001 Q 5.3880197753906245 0.4680000000000002 5.3880197753906245 0.5010000000000001 Q 5.3880197753906245 0.5385000000000001 5.3647697753906245 0.5670000000000002 Q 5.3415197753906245 0.5955000000000001 5.302519775390625 0.5955000000000001 Q 5.2710197753906245 0.5955000000000001 5.2470197753906245 0.5752500000000002 Q 5.2230197753906245 0.5550000000000002 5.2230197753906245 0.5175000000000002 Q 5.2230197753906245 0.4890000000000001 5.238769775390625 0.4687500000000001 Q 5.254519775390625 0.4485000000000001 5.274019775390625 0.4365000000000001 Q 5.263519775390625 0.4215000000000001 5.242519775390625 0.4215000000000001 Q 5.196019775390625 0.4215000000000001 5.157019775390625 0.44925000000000015 Q 5.118019775390625 0.4770000000000001 5.091019775390625 0.5205000000000002 Q 5.064019775390625 0.5640000000000002 5.049019775390625 0.6127500000000001 Q 5.034019775390625 0.6615000000000002 5.034019775390625 0.7035000000000001 L 5.034019775390625 1.0215 Q 5.034019775390625 1.0950000000000002 5.076769775390625 1.1197500000000002 Q 5.119519775390625 1.1445 5.193019775390625 1.1445 L 5.193019775390625 1.1760000000000002 Q 5.158519775390625 1.1745 5.095519775390625 1.1722500000000002 Q 5.032519775390625 1.1700000000000002 4.962019775390625 1.1700000000000002 Q 4.911019775390625 1.1700000000000002 4.860769775390625 1.1722500000000002 Q 4.810519775390625 1.1745 4.785019775390625 1.1760000000000002 L 4.785019775390625 1.1445 Q 4.846519775390625 1.1445 4.8727697753906245 1.122 Q 4.899019775390625 1.0995000000000001 4.899019775390625 1.0365000000000002 L 4.899019775390625 0.5670000000000002 Q 4.899019775390625 0.49950000000000017 4.875019775390625 0.46725000000000017 Q 4.851019775390625 0.43500000000000016 4.785019775390625 0.43500000000000016 L 4.785019775390625 0.4035000000000002 Q 4.833019775390625 0.40800000000000014 4.878019775390625 0.40800000000000014 Q 4.921519775390625 0.40800000000000014 4.961269775390625 0.40275000000000016 Q 5.001019775390625 0.3975000000000002 5.034019775390625 0.3870000000000001 L 5.034019775390625 0.5745000000000001 Q 5.050519775390625 0.5310000000000001 5.081269775390625 0.4867500000000001 Q 5.112019775390625 0.4425000000000001 5.155519775390625 0.4125000000000001 Q 5.199019775390624 0.3825000000000002 5.251519775390625 0.3825000000000002 M 5.6805307617187495 1.1865 Q 5.61903076171875 1.1865 5.57403076171875 1.1632500000000001 Q 5.52903076171875 1.1400000000000001 5.50578076171875 1.098 Q 5.48253076171875 1.056 5.48253076171875 1.0005000000000002 Q 5.48253076171875 0.9345000000000001 5.513280761718749 0.8925000000000001 Q 5.54403076171875 0.8505000000000001 5.59203076171875 0.8250000000000002 Q 5.64003076171875 0.7995000000000001 5.69328076171875 0.7822500000000001 Q 5.746530761718749 0.7650000000000001 5.794530761718749 0.7492500000000002 Q 5.842530761718749 0.7335000000000002 5.87328076171875 0.7125000000000001 Q 5.904030761718749 0.6915000000000002 5.904030761718749 0.6570000000000001 L 5.904030761718749 0.5640000000000002 Q 5.904030761718749 0.5010000000000001 5.885280761718749 0.4680000000000002 Q 5.866530761718749 0.43500000000000016 5.83503076171875 0.4237500000000002 Q 5.80353076171875 0.4125000000000001 5.764530761718749 0.4125000000000001 Q 5.7270307617187495 0.4125000000000001 5.68428076171875 0.42300000000000015 Q 5.64153076171875 0.4335000000000001 5.61603076171875 0.46650000000000014 Q 5.64453076171875 0.47250000000000014 5.66553076171875 0.49650000000000016 Q 5.68653076171875 0.5205000000000002 5.68653076171875 0.5580000000000002 Q 5.68653076171875 0.5955000000000001 5.66253076171875 0.6172500000000002 Q 5.63853076171875 0.6390000000000001 5.601030761718749 0.6390000000000001 Q 5.557530761718749 0.6390000000000001 5.537280761718749 0.6112500000000002 Q 5.5170307617187495 0.5835000000000001 5.5170307617187495 0.5490000000000002 Q 5.5170307617187495 0.5100000000000001 5.536530761718749 0.4860000000000001 Q 5.556030761718749 0.4620000000000002 5.5860307617187495 0.44100000000000017 Q 5.62053076171875 0.41700000000000015 5.675280761718749 0.39975000000000016 Q 5.73003076171875 0.3825000000000002 5.7990307617187495 0.3825000000000002 Q 5.860530761718749 0.3825000000000002 5.904030761718749 0.39675000000000016 Q 5.94753076171875 0.41100000000000014 5.97603076171875 0.43800000000000017 Q 6.01503076171875 0.4740000000000001 6.027030761718749 0.5257500000000002 Q 6.03903076171875 0.5775000000000001 6.03903076171875 0.6495000000000002 L 6.03903076171875 1.0665000000000002 Q 6.03903076171875 1.104 6.050280761718749 1.1205 Q 6.06153076171875 1.1370000000000002 6.08553076171875 1.1370000000000002 Q 6.1020307617187495 1.1370000000000002 6.11703076171875 1.1295000000000002 Q 6.13203076171875 1.122 6.15303076171875 1.1055000000000001 L 6.169530761718749 1.1310000000000002 Q 6.138030761718749 1.1550000000000002 6.10953076171875 1.1707500000000002 Q 6.08103076171875 1.1865 6.0330307617187495 1.1865 Q 5.98953076171875 1.1865 5.9610307617187495 1.1715000000000002 Q 5.932530761718749 1.1565 5.91828076171875 1.12725 Q 5.904030761718749 1.098 5.904030761718749 1.0530000000000002 Q 5.863530761718749 1.1205 5.80728076171875 1.1535000000000002 Q 5.7510307617187495 1.1865 5.6805307617187495 1.1865 M 5.73453076171875 1.1265 Q 5.78403076171875 1.1265 5.82678076171875 1.098 Q 5.8695307617187495 1.0695000000000001 5.904030761718749 1.0125000000000002 L 5.904030761718749 0.7185000000000001 Q 5.886030761718749 0.7440000000000002 5.85153076171875 0.7612500000000002 Q 5.817030761718749 0.7785000000000002 5.77653076171875 0.7957500000000002 Q 5.73603076171875 0.8130000000000002 5.699280761718749 0.8362500000000002 Q 5.66253076171875 0.8595000000000002 5.63853076171875 0.8970000000000001 Q 5.61453076171875 0.9345000000000001 5.61453076171875 0.9945000000000002 Q 5.61453076171875 1.0545000000000002 5.64678076171875 1.0905000000000002 Q 5.679030761718749 1.1265 5.73453076171875 1.1265" fill="#102036" fill-rule="nonzero"></path></g><g></g><g clip-path="url(#SvgjsClipPath1001)"><g clip-path="url(#SvgjsClipPath100071cedc6c-e527-45a6-af95-d267d0ed9478)"><path d=" M 4.912009429318873 -4.7486301748772455 L 1.2590000921655018 -4.7486301748772455 L 1.2590000921655018 -1.0956208377238745 L 4.912009429318873 -1.0956208377238745 Z M 1.1960180939819978 -4.81161217306075 L 1.1960180939819978 -1.032638839540371 L 4.974991427502377 -1.032638839540371 L 4.974991427502377 -4.81161217306075 Z" fill="#3682ae" transform="matrix(1,0,0,1,0,0)" fill-rule="evenodd"></path></g><g clip-path="url(#SvgjsClipPath100071cedc6c-e527-45a6-af95-d267d0ed9478)"><path d=" M 3.085504760742187 -5.505189069476123 L 0.5024411975666241 -2.922125506300561 L 3.085504760742187 -0.33906194312499727 L 5.66856832391775 -2.922125506300561 Z M 0.4133792544416264 -2.922125506300561 L 3.085504760742187 -0.25 L 5.757630267042748 -2.922125506300561 L 3.085504760742187 -5.594251012601121 Z" fill="#3682ae" transform="matrix(1,0,0,1,0,0)" fill-rule="evenodd"></path></g><g clip-path="url(#SvgjsClipPath100071cedc6c-e527-45a6-af95-d267d0ed9478)"><path d=" M 3.754043841163524 -5.4171692552985835 L 0.5904610117441644 -3.590664586721898 L 2.4169656803208497 -0.4270817573025383 L 5.580548509740209 -2.2535864258792238 Z M 0.5044185704412865 -3.6137250298412718 L 2.3939052372014755 -0.34103931599965964 L 5.666590951043088 -2.2305259827598496 L 3.777104284282898 -5.503211696601461 Z" fill="#3682ae" transform="matrix(1,0,0,1,0,0)" fill-rule="evenodd"></path></g><g clip-path="url(#SvgjsClipPath100071cedc6c-e527-45a6-af95-d267d0ed9478)"><path d=" M 5.580548509740209 -3.590664586721898 L 2.4169656803208497 -5.4171692552985835 L 0.5904610117441644 -2.2535864258792233 L 3.754043841163524 -0.4270817573025383 Z M 2.3939052372014755 -5.503211696601461 L 0.5044185704412865 -2.2305259827598496 L 3.777104284282898 -0.34103931599965964 L 5.666590951043088 -3.6137250298412718 Z" fill="#3682ae" transform="matrix(1,0,0,1,0,0)" fill-rule="evenodd"></path></g><g clip-path="url(#SvgjsClipPath100071cedc6c-e527-45a6-af95-d267d0ed9478)"><path d=" M 4.377023181702437 -5.159122095155138 L 0.8485081718876096 -4.213643927260811 L 1.7939863397819371 -0.6851289174459829 L 5.322501349596765 -1.6306070853403103 Z M 0.7714440722859014 -4.258188259450841 L 1.7494420075919066 -0.6080648178442751 L 5.399565449198472 -1.5860627531502804 L 4.421567513892467 -5.236186194756846 Z" fill="#3682ae" transform="matrix(1,0,0,1,0,0)" fill-rule="evenodd"></path></g><g clip-path="url(#SvgjsClipPath100071cedc6c-e527-45a6-af95-d267d0ed9478)"><path d=" M 5.322501349596765 -4.213643927260811 L 1.7939863397819371 -5.159122095155138 L 0.8485081718876096 -1.6306070853403103 L 4.377023181702437 -0.6851289174459829 Z M 1.7494420075919066 -5.236186194756846 L 0.7714440722859014 -1.5860627531502804 L 4.421567513892467 -0.6080648178442751 L 5.399565449198472 -4.258188259450841 Z" fill="#3682ae" transform="matrix(1,0,0,1,0,0)" fill-rule="evenodd"></path></g><path d=" M 3.2938614701712794 -3.8545489642339383 C 3.3292070456514455 -3.8545489642339383 3.343345275843512 -3.840410734041872 3.343345275843512 -3.8085997161097227 L 3.343345275843512 -3.207724932946898 C 3.343345275843512 -3.182983030110782 3.3362761607474782 -3.154706569726649 3.2585158946911132 -3.1016882065063998 L 2.908594697437468 -2.86133829324127 L 2.908594697437468 -3.8545489642339383 M 3.813441429729721 -1.8928695250847172 C 3.7886995268936055 -1.9388187732089333 3.6402481098769073 -2.3134818732986946 3.4953312504082263 -2.730559663964655 C 3.6579208976169904 -2.833061832857137 3.816975987277738 -2.924960329105569 3.816975987277738 -3.076946303670283 L 3.816975987277738 -3.907567327454188 C 3.816975987277738 -4.140848125623284 3.6685245702610403 -4.246884852063783 3.431709214543927 -4.246884852063783 L 2.360738277494893 -4.243350294515766 C 2.31125447182266 -4.243350294515766 2.2829780114385274 -4.215073834131633 2.2829780114385274 -4.183262816199484 C 2.2829780114385274 -4.109037107691135 2.434963986003242 -4.027742284086753 2.434963986003242 -3.8863599821660886 L 2.434963986003242 -1.9317496581129001 C 2.434963986003242 -1.7903673561922355 2.2829780114385274 -1.7090725325878537 2.2829780114385274 -1.6348468240795047 C 2.2829780114385274 -1.6030358061473553 2.31125447182266 -1.5747593457632223 2.360738277494893 -1.5747593457632223 L 2.9828204059458168 -1.5747593457632223 C 3.0323042116180496 -1.5747593457632223 3.0605806720021826 -1.6030358061473553 3.0605806720021826 -1.6348468240795047 C 3.0605806720021826 -1.7090725325878537 2.908594697437468 -1.7903673561922355 2.908594697437468 -1.9317496581129001 L 2.908594697437468 -2.3276201034907613 C 2.908594697437468 -2.3488274487788607 2.912129254985485 -2.3594311214229107 2.922732927629535 -2.3665002365189443 L 3.053511556906149 -2.447795060123326 C 3.053511556906149 -2.447795060123326 3.3009305852673125 -1.8151092590283517 3.3009305852673125 -1.7762291260001692 C 3.3009305852673125 -1.6984688599438038 3.2196357616629303 -1.6878651872997539 3.2196357616629303 -1.6348468240795047 C 3.2196357616629303 -1.6030358061473553 3.2514467795950797 -1.5747593457632223 3.3009305852673125 -1.5747593457632223 L 3.912409041074187 -1.5747593457632223 C 3.95128917410237 -1.5747593457632223 3.986634749582535 -1.6030358061473553 3.986634749582535 -1.6348468240795047 C 3.986634749582535 -1.71260709013587 3.9194781561702206 -1.705537975039837 3.813441429729721 -1.8928695250847172" fill="#3682ae" transform="matrix(1,0,0,1,0,0)" fill-rule="nonzero"></path></g></g><defs><clipPath id="SvgjsClipPath1001"><path d=" M 0.4133792544416264 -5.594251012601121 h 5.344251012601121 v 5.344251012601121 h -5.344251012601121 Z"></path></clipPath><clipPath id="SvgjsClipPath100071cedc6c-e527-45a6-af95-d267d0ed9478"><path d=" M 0.4133792544416264 -5.594251012601121 L 5.757630267042748 -5.594251012601121 L 5.757630267042748 -0.25 L 0.4133792544416264 -0.25 Z"></path></clipPath></defs></svg>